# xmcd
# Track frame offsets:
# 182
# 13532
# 29807
# 37845
# 51045
# 60182
# 70532
# 80807
# 95595
# 112695
# 120345
# 130245
#
# Disc length: 1928 seconds
# Revision: 0
# Processed by: cddbd v1.4PL0 Copyright (c) Steve Scherf et al.
# Submitted via: VisiTrax 2.9.5.181 - For more info visit www.synapsa.com
#
DISCID=8d07860c
DTITLE=The marksmen - Sacred Sounds of The Marksmen
DYEAR=1989
DGENRE=Bluegrass
TTITLE0=How Beautiful Heaven Must Be
TTITLE1=Angel Band
TTITLE2=Kneel At The Cross
TTITLE3=Rock of Ages
TTITLE4=Nothing But the Blood
TTITLE5=Just As I am
TTITLE6=There Is Power In The Blood
TTITLE7=Pass Me Not
TTITLE8=Lord I'm Coming Home
TTITLE9=Oh, Why Not Tonight
TTITLE10=Is Thy Heart Right With God
TTITLE11=There Is A Fountain
EXTD=895-2 Arrival
EXTT0=
EXTT1=
EXTT2=
EXTT3=
EXTT4=
EXTT5=
EXTT6=
EXTT7=
EXTT8=
EXTT9=
EXTT10=
EXTT11=
PLAYORDER=
